{
  "accessors": [
    {
      "bufferView": 2,
      "componentType": 5126,
      "count": 720,
      "max": [
        5.0,
        3.5,
        1.3000004291534424
      ],
      "min": [
        -5.0,
        -3.5,
        -6.189999103546143
      ],
      "type": "VEC3"
    },
    {
      "bufferView": 2,
      "byteOffset": 8640,
      "componentType": 5126,
      "count": 720,
      "max": [
        1.0,
        1.0,
        1.0
      ],
      "min": [
        -1.0,
        -1.0,
        -1.0
      ],
      "type": "VEC3"
    },
    {
      "bufferView": 1,
      "componentType": 5126,
      "count": 720,
      "max": [
        0.8707041144371033,
        0.9969963431358337
      ],
      "min": [
        0.0030035930685698986,
        0.0030035930685698986
      ],
      "type": "VEC2"
    },
    {
      "bufferView": 1,
      "byteOffset": 5760,
      "componentType": 5126,
      "count": 720,
      "max": [
        0.8793253302574158,
        0.9997851848602295
      ],
      "min": [
        0.0,
        0.0
      ],
      "type": "VEC2"
    },
    {
      "bufferView": 1,
      "byteOffset": 11520,
      "componentType": 5126,
      "count": 720,
      "max": [
        0.8707041144371033,
        0.9969963431358337
      ],
      "min": [
        0.0030035930685698986,
        0.0030035930685698986
      ],
      "type": "VEC2"
    },
    {
      "bufferView": 0,
      "componentType": 5125,
      "count": 2568,
      "type": "SCALAR"
    },
    {
      "bufferView": 2,
      "byteOffset": 17280,
      "componentType": 5126,
      "count": 960,
      "max": [
        3.0323565006256104,
        2.5,
        5.465996742248535
      ],
      "min": [
        -3.0323565006256104,
        -3.4839749336242676,
        -4.000000953674316
      ],
      "type": "VEC3"
    },
    {
      "bufferView": 2,
      "byteOffset": 28800,
      "componentType": 5126,
      "count": 960,
      "max": [
        1.0,
        1.0,
        1.0
      ],
      "min": [
        -1.0,
        -1.0,
        -1.0
      ],
      "type": "VEC3"
    },
    {
      "bufferView": 1,
      "byteOffset": 17280,
      "componentType": 5126,
      "count": 960,
      "max": [
        0.9690093994140625,
        0.9420163631439209
      ],
      "min": [
        0.0030035930685698986,
        0.0030035930685698986
      ],
      "type": "VEC2"
    },
    {
      "bufferView": 1,
      "byteOffset": 24960,
      "componentType": 5126,
      "count": 960,
      "max": [
        0.9690093994140625,
        0.9420163631439209
      ],
      "min": [
        0.0030035930685698986,
        0.0030035930685698986
      ],
      "type": "VEC2"
    },
    {
      "bufferView": 0,
      "byteOffset": 10272,
      "componentType": 5125,
      "count": 3576,
      "type": "SCALAR"
    }
  ],
  "asset": {
    "extras": {
      "author": "afferu (https://sketchfab.com/afferu)",
      "license": "CC-BY-SA-4.0 (http://creativecommons.org/licenses/by-sa/4.0/)",
      "source": "https://sketchfab.com/3d-models/school-desk-746abc6690c240d18f0a8dcd5492435a",
      "title": "School Desk"
    },
    "generator": "Sketchfab-12.67.0",
    "version": "2.0"
  },
  "bufferViews": [
    {
      "buffer": 0,
      "byteLength": 24576,
      "name": "floatBufferViews",
      "target": 34963
    },
    {
      "buffer": 0,
      "byteLength": 32640,
      "byteOffset": 24576,
      "byteStride": 8,
      "name": "floatBufferViews",
      "target": 34962
    },
    {
      "buffer": 0,
      "byteLength": 40320,
      "byteOffset": 57216,
      "byteStride": 12,
      "name": "floatBufferViews",
      "target": 34962
    }
  ],
  "buffers": [
    {
      "byteLength": 97536,
      "uri": "scene.bin"
    }
  ],
  "images": [
    {
      "uri": "textures/Desk_mat_baseColor.png"
    },
    {
      "uri": "textures/Desk_mat_metallicRoughness.png"
    }
  ],
  "materials": [
    {
      "doubleSided": true,
      "name": "Desk_mat",
      "pbrMetallicRoughness": {
        "baseColorTexture": {
          "index": 0
        },
        "metallicFactor": 0.0,
        "metallicRoughnessTexture": {
          "index": 1
        }
      }
    }
  ],
  "meshes": [
    {
      "name": "Desk_e_Desk_mat_0",
      "primitives": [
        {
          "attributes": {
            "NORMAL": 1,
            "POSITION": 0,
            "TEXCOORD_0": 2,
            "TEXCOORD_1": 3,
            "TEXCOORD_2": 4
          },
          "indices": 5,
          "material": 0,
          "mode": 4
        }
      ]
    },
    {
      "name": "Chair_e_Desk_mat_0",
      "primitives": [
        {
          "attributes": {
            "NORMAL": 7,
            "POSITION": 6,
            "TEXCOORD_0": 8,
            "TEXCOORD_1": 9
          },
          "indices": 10,
          "material": 0,
          "mode": 4
        }
      ]
    }
  ],
  "nodes": [
    {
      "children": [
        1
      ],
      "matrix": [
        -1.0,
        -6.290011496532519e-32,
        2.832769343193999e-16,
        0.0,
        2.832769343193999e-16,
        -2.220446049250313e-16,
        1.0,
        0.0,
        0.0,
        1.0,
        2.220446049250313e-16,
        0.0,
        4.291534423828125e-05,
        3.573675733175096e-07,
        41.972965240478516,
        1.0
      ],
      "name": "Sketchfab_model"
    },
    {
      "children": [
        2
      ],
      "matrix": [
        1.0,
        0.0,
        0.0,
        0.0,
        0.0,
        0.0,
        1.0,
        0.0,
        0.0,
        -1.0,
        0.0,
        0.0,
        0.0,
        0.0,
        0.0,
        1.0
      ],
      "name": "f14889da99a6499c84e72c1f4133cd6f.fbx"
    },
    {
      "children": [
        3,
        5
      ],
      "name": "RootNode"
    },
    {
      "children": [
        4
      ],
      "matrix": [
        10.0,
        0.0,
        0.0,
        0.0,
        0.0,
        -1.6292067939183141e-06,
        -9.999999999999869,
        0.0,
        0.0,
        9.999999999999869,
        -1.6292067939183141e-06,
        0.0,
        0.0,
        61.899993896484375,
        0.0,
        1.0
      ],
      "name": "Desk_e"
    },
    {
      "mesh": 0,
      "name": "Desk_e_Desk_mat_0"
    },
    {
      "children": [
        6
      ],
      "matrix": [
        10.0,
        0.0,
        0.0,
        0.0,
        0.0,
        -1.6292067939183141e-06,
        -9.999999999999869,
        0.0,
        0.0,
        9.999999999999869,
        -1.6292067939183141e-06,
        0.0,
        0.0,
        39.999996185302734,
        42.13330841064453,
        1.0
      ],
      "name": "Chair_e"
    },
    {
      "mesh": 1,
      "name": "Chair_e_Desk_mat_0"
    }
  ],
  "samplers": [
    {
      "magFilter": 9729,
      "minFilter": 9987,
      "wrapS": 10497,
      "wrapT": 10497
    }
  ],
  "scene": 0,
  "scenes": [
    {
      "name": "Sketchfab_Scene",
      "nodes": [
        0
      ]
    }
  ],
  "textures": [
    {
      "sampler": 0,
      "source": 0
    },
    {
      "sampler": 0,
      "source": 1
    }
  ]
}
