{
  "accessors": [
    {
      "bufferView": 2,
      "componentType": 5126,
      "count": 164,
      "max": [
        1.0,
        5.296040058135986,
        0.13716000318527222
      ],
      "min": [
        -1.0,
        -5.296040058135986,
        -0.13716000318527222
      ],
      "type": "VEC3"
    },
    {
      "bufferView": 2,
      "byteOffset": 1968,
      "componentType": 5126,
      "count": 164,
      "max": [
        0.9830644726753235,
        0.9830654859542847,
        0.9830654859542847
      ],
      "min": [
        -0.9830644726753235,
        -0.9830654859542847,
        -0.9830654859542847
      ],
      "type": "VEC3"
    },
    {
      "bufferView": 1,
      "componentType": 5126,
      "count": 164,
      "max": [
        0.7393500208854675,
        0.9821100234985352
      ],
      "min": [
        0.28532999753952026,
        0.014360000379383564
      ],
      "type": "VEC2"
    },
    {
      "bufferView": 0,
      "componentType": 5125,
      "count": 564,
      "type": "SCALAR"
    },
    {
      "bufferView": 2,
      "byteOffset": 3936,
      "componentType": 5126,
      "count": 308,
      "max": [
        1.0,
        5.296040058135986,
        0.13716000318527222
      ],
      "min": [
        -1.0,
        -5.296040058135986,
        -0.13716000318527222
      ],
      "type": "VEC3"
    },
    {
      "bufferView": 2,
      "byteOffset": 7632,
      "componentType": 5126,
      "count": 308,
      "max": [
        0.9935517907142639,
        0.9935564994812012,
        0.9935517907142639
      ],
      "min": [
        -0.9935517907142639,
        -0.9935564994812012,
        -0.9935517907142639
      ],
      "type": "VEC3"
    },
    {
      "bufferView": 1,
      "byteOffset": 1312,
      "componentType": 5126,
      "count": 308,
      "max": [
        0.7389799952507019,
        0.9818500280380249
      ],
      "min": [
        0.2855899930000305,
        0.014619999565184116
      ],
      "type": "VEC2"
    },
    {
      "bufferView": 0,
      "byteOffset": 2256,
      "componentType": 5125,
      "count": 1284,
      "type": "SCALAR"
    },
    {
      "bufferView": 2,
      "byteOffset": 11328,
      "componentType": 5126,
      "count": 288,
      "max": [
        1.0,
        5.296040058135986,
        0.13716000318527222
      ],
      "min": [
        -1.0,
        -5.296040058135986,
        -0.13716000318527222
      ],
      "type": "VEC3"
    },
    {
      "bufferView": 2,
      "byteOffset": 14784,
      "componentType": 5126,
      "count": 288,
      "max": [
        0.9935517907142639,
        0.9935564994812012,
        0.9935517907142639
      ],
      "min": [
        -0.9935517907142639,
        -0.9935564994812012,
        -0.9935517907142639
      ],
      "type": "VEC3"
    },
    {
      "bufferView": 1,
      "byteOffset": 3776,
      "componentType": 5126,
      "count": 288,
      "max": [
        0.7418400049209595,
        0.9746599793434143
      ],
      "min": [
        0.28148001432418823,
        -0.0
      ],
      "type": "VEC2"
    },
    {
      "bufferView": 0,
      "byteOffset": 7392,
      "componentType": 5125,
      "count": 1284,
      "type": "SCALAR"
    }
  ],
  "asset": {
    "extras": {
      "author": "andres Hiciano (https://sketchfab.com/andreshc3d)",
      "license": "CC-BY-4.0 (http://creativecommons.org/licenses/by/4.0/)",
      "source": "https://sketchfab.com/3d-models/planks-of-wood-2341e9c2456f4876b2e86a9465724b0d",
      "title": "Planks Of Wood"
    },
    "generator": "Sketchfab-12.66.0",
    "version": "2.0"
  },
  "bufferViews": [
    {
      "buffer": 0,
      "byteLength": 12528,
      "name": "floatBufferViews",
      "target": 34963
    },
    {
      "buffer": 0,
      "byteLength": 6080,
      "byteOffset": 12528,
      "byteStride": 8,
      "name": "floatBufferViews",
      "target": 34962
    },
    {
      "buffer": 0,
      "byteLength": 18240,
      "byteOffset": 18608,
      "byteStride": 12,
      "name": "floatBufferViews",
      "target": 34962
    }
  ],
  "buffers": [
    {
      "byteLength": 36848,
      "uri": "scene.bin"
    }
  ],
  "extensionsRequired": [
    "KHR_materials_pbrSpecularGlossiness"
  ],
  "extensionsUsed": [
    "KHR_materials_pbrSpecularGlossiness"
  ],
  "images": [
    {
      "uri": "textures/Material.003_diffuse.jpeg"
    },
    {
      "uri": "textures/Material.003_specularGlossiness.png"
    },
    {
      "uri": "textures/Material.002_diffuse.jpeg"
    },
    {
      "uri": "textures/Material.002_specularGlossiness.png"
    },
    {
      "uri": "textures/Material.001_diffuse.jpeg"
    },
    {
      "uri": "textures/Material.001_specularGlossiness.png"
    }
  ],
  "materials": [
    {
      "doubleSided": true,
      "extensions": {
        "KHR_materials_pbrSpecularGlossiness": {
          "diffuseFactor": [
            1.0,
            1.0,
            1.0,
            1.0
          ],
          "diffuseTexture": {
            "index": 0
          },
          "glossinessFactor": 1.0,
          "specularFactor": [
            1.0,
            1.0,
            1.0
          ],
          "specularGlossinessTexture": {
            "index": 1
          }
        }
      },
      "name": "Material.003"
    },
    {
      "doubleSided": true,
      "extensions": {
        "KHR_materials_pbrSpecularGlossiness": {
          "diffuseFactor": [
            1.0,
            1.0,
            1.0,
            1.0
          ],
          "diffuseTexture": {
            "index": 2
          },
          "glossinessFactor": 1.0,
          "specularFactor": [
            1.0,
            1.0,
            1.0
          ],
          "specularGlossinessTexture": {
            "index": 3
          }
        }
      },
      "name": "Material.002"
    },
    {
      "doubleSided": true,
      "extensions": {
        "KHR_materials_pbrSpecularGlossiness": {
          "diffuseFactor": [
            1.0,
            1.0,
            1.0,
            1.0
          ],
          "diffuseTexture": {
            "index": 4
          },
          "glossinessFactor": 1.0,
          "specularFactor": [
            1.0,
            1.0,
            1.0
          ],
          "specularGlossinessTexture": {
            "index": 5
          }
        }
      },
      "name": "Material.001"
    }
  ],
  "meshes": [
    {
      "name": "Cube.002_0",
      "primitives": [
        {
          "attributes": {
            "NORMAL": 1,
            "POSITION": 0,
            "TEXCOORD_0": 2
          },
          "indices": 3,
          "material": 2,
          "mode": 4
        }
      ]
    },
    {
      "name": "Cube.007_0",
      "primitives": [
        {
          "attributes": {
            "NORMAL": 5,
            "POSITION": 4,
            "TEXCOORD_0": 6
          },
          "indices": 7,
          "material": 1,
          "mode": 4
        }
      ]
    },
    {
      "name": "Cube.005_0",
      "primitives": [
        {
          "attributes": {
            "NORMAL": 9,
            "POSITION": 8,
            "TEXCOORD_0": 10
          },
          "indices": 11,
          "material": 0,
          "mode": 4
        }
      ]
    }
  ],
  "nodes": [
    {
      "children": [
        1
      ],
      "matrix": [
        0.2471017986536026,
        0.0,
        0.0,
        0.0,
        0.0,
        5.486762125830382e-17,
        -0.2471017986536026,
        0.0,
        0.0,
        0.2471017986536026,
        5.486762125830382e-17,
        0.0,
        0.0,
        0.0,
        0.0,
        1.0
      ],
      "name": "Sketchfab_model"
    },
    {
      "children": [
        2,
        4,
        6
      ],
      "name": "Root"
    },
    {
      "children": [
        3
      ],
      "matrix": [
        0.9546000000000001,
        0.0,
        0.0,
        0.0,
        0.0,
        0.9546000000000001,
        0.0,
        0.0,
        0.0,
        0.0,
        0.9546000000000001,
        0.0,
        4.09465,
        0.5528500000000001,
        0.011530000000000004,
        1.0
      ],
      "name": "Cube.002"
    },
    {
      "mesh": 0,
      "name": "Cube.002_0"
    },
    {
      "children": [
        5
      ],
      "matrix": [
        0.9546000000000001,
        0.0,
        0.0,
        0.0,
        0.0,
        0.9546000000000001,
        0.0,
        0.0,
        0.0,
        0.0,
        0.9546000000000001,
        0.0,
        1.0036399999999999,
        0.7280700000000001,
        0.37513,
        1.0
      ],
      "name": "Cube.007"
    },
    {
      "mesh": 1,
      "name": "Cube.007_0"
    },
    {
      "children": [
        7
      ],
      "matrix": [
        0.9546000000000001,
        0.0,
        0.0,
        0.0,
        0.0,
        0.9546000000000001,
        0.0,
        0.0,
        0.0,
        0.0,
        0.9546000000000001,
        0.0,
        -1.55476,
        1.28406,
        0.37513,
        1.0
      ],
      "name": "Cube.005"
    },
    {
      "mesh": 2,
      "name": "Cube.005_0"
    }
  ],
  "samplers": [
    {
      "magFilter": 9729,
      "minFilter": 9987,
      "wrapS": 10497,
      "wrapT": 10497
    }
  ],
  "scene": 0,
  "scenes": [
    {
      "name": "Sketchfab_Scene",
      "nodes": [
        0
      ]
    }
  ],
  "textures": [
    {
      "sampler": 0,
      "source": 0
    },
    {
      "sampler": 0,
      "source": 1
    },
    {
      "sampler": 0,
      "source": 2
    },
    {
      "sampler": 0,
      "source": 3
    },
    {
      "sampler": 0,
      "source": 4
    },
    {
      "sampler": 0,
      "source": 5
    }
  ]
}
