{
  "accessors": [
    {
      "bufferView": 2,
      "componentType": 5126,
      "count": 124,
      "max": [
        0.930177628993988,
        9.12917709350586,
        0.27331358194351196
      ],
      "min": [
        -3.8191964626312256,
        0.35042253136634827,
        0.11734496057033539
      ],
      "type": "VEC3"
    },
    {
      "bufferView": 2,
      "byteOffset": 1488,
      "componentType": 5126,
      "count": 124,
      "max": [
        1.0,
        1.0,
        1.0
      ],
      "min": [
        -1.0,
        -1.0,
        -1.0
      ],
      "type": "VEC3"
    },
    {
      "bufferView": 1,
      "componentType": 5126,
      "count": 124,
      "max": [
        0.875,
        1.0
      ],
      "min": [
        0.125,
        0.0
      ],
      "type": "VEC2"
    },
    {
      "bufferView": 0,
      "componentType": 5125,
      "count": 192,
      "type": "SCALAR"
    },
    {
      "bufferView": 2,
      "byteOffset": 2976,
      "componentType": 5126,
      "count": 24,
      "max": [
        0.5,
        0.5,
        0.5
      ],
      "min": [
        -0.5,
        -0.5,
        -0.5
      ],
      "type": "VEC3"
    },
    {
      "bufferView": 2,
      "byteOffset": 3264,
      "componentType": 5126,
      "count": 24,
      "max": [
        1.0,
        1.0,
        1.0
      ],
      "min": [
        -1.0,
        -1.0,
        -1.0
      ],
      "type": "VEC3"
    },
    {
      "bufferView": 1,
      "byteOffset": 992,
      "componentType": 5126,
      "count": 24,
      "max": [
        0.875,
        1.0
      ],
      "min": [
        0.125,
        0.0
      ],
      "type": "VEC2"
    },
    {
      "bufferView": 0,
      "byteOffset": 768,
      "componentType": 5125,
      "count": 36,
      "type": "SCALAR"
    },
    {
      "bufferView": 2,
      "byteOffset": 3552,
      "componentType": 5126,
      "count": 124,
      "max": [
        0.9301776885986328,
        9.12917709350586,
        0.27331358194351196
      ],
      "min": [
        -3.8191964626312256,
        0.35042253136634827,
        0.11734496057033539
      ],
      "type": "VEC3"
    },
    {
      "bufferView": 2,
      "byteOffset": 5040,
      "componentType": 5126,
      "count": 124,
      "max": [
        1.0,
        1.0,
        1.0
      ],
      "min": [
        -1.0,
        -1.0,
        -1.0
      ],
      "type": "VEC3"
    },
    {
      "bufferView": 1,
      "byteOffset": 1184,
      "componentType": 5126,
      "count": 124,
      "max": [
        0.875,
        1.0
      ],
      "min": [
        0.125,
        0.0
      ],
      "type": "VEC2"
    },
    {
      "bufferView": 0,
      "byteOffset": 912,
      "componentType": 5125,
      "count": 192,
      "type": "SCALAR"
    },
    {
      "bufferView": 2,
      "byteOffset": 6528,
      "componentType": 5126,
      "count": 24,
      "max": [
        0.5,
        0.5,
        0.5
      ],
      "min": [
        -0.5,
        -0.5,
        -0.5
      ],
      "type": "VEC3"
    },
    {
      "bufferView": 2,
      "byteOffset": 6816,
      "componentType": 5126,
      "count": 24,
      "max": [
        1.0,
        1.0,
        1.0
      ],
      "min": [
        -1.0,
        -1.0,
        -1.0
      ],
      "type": "VEC3"
    },
    {
      "bufferView": 1,
      "byteOffset": 2176,
      "componentType": 5126,
      "count": 24,
      "max": [
        0.875,
        1.0
      ],
      "min": [
        0.125,
        0.0
      ],
      "type": "VEC2"
    },
    {
      "bufferView": 0,
      "byteOffset": 1680,
      "componentType": 5125,
      "count": 36,
      "type": "SCALAR"
    },
    {
      "bufferView": 2,
      "byteOffset": 7104,
      "componentType": 5126,
      "count": 124,
      "max": [
        0.9301776885986328,
        9.12917709350586,
        0.27331358194351196
      ],
      "min": [
        -3.8191967010498047,
        0.35042253136634827,
        0.11734496057033539
      ],
      "type": "VEC3"
    },
    {
      "bufferView": 2,
      "byteOffset": 8592,
      "componentType": 5126,
      "count": 124,
      "max": [
        1.0,
        1.0,
        1.0
      ],
      "min": [
        -1.0,
        -1.0,
        -1.0
      ],
      "type": "VEC3"
    },
    {
      "bufferView": 1,
      "byteOffset": 2368,
      "componentType": 5126,
      "count": 124,
      "max": [
        1.0,
        1.0
      ],
      "min": [
        0.125,
        0.0
      ],
      "type": "VEC2"
    },
    {
      "bufferView": 0,
      "byteOffset": 1824,
      "componentType": 5125,
      "count": 192,
      "type": "SCALAR"
    },
    {
      "bufferView": 2,
      "byteOffset": 10080,
      "componentType": 5126,
      "count": 24,
      "max": [
        0.5,
        0.5,
        0.5
      ],
      "min": [
        -0.5,
        -0.5,
        -0.5
      ],
      "type": "VEC3"
    },
    {
      "bufferView": 2,
      "byteOffset": 10368,
      "componentType": 5126,
      "count": 24,
      "max": [
        1.0,
        1.0,
        1.0
      ],
      "min": [
        -1.0,
        -1.0,
        -1.0
      ],
      "type": "VEC3"
    },
    {
      "bufferView": 1,
      "byteOffset": 3360,
      "componentType": 5126,
      "count": 24,
      "max": [
        0.875,
        1.0
      ],
      "min": [
        0.125,
        0.0
      ],
      "type": "VEC2"
    },
    {
      "bufferView": 0,
      "byteOffset": 2592,
      "componentType": 5125,
      "count": 36,
      "type": "SCALAR"
    },
    {
      "bufferView": 2,
      "byteOffset": 10656,
      "componentType": 5126,
      "count": 124,
      "max": [
        0.9301776885986328,
        9.12917709350586,
        0.27331358194351196
      ],
      "min": [
        -3.8191962242126465,
        0.35042253136634827,
        0.11734496057033539
      ],
      "type": "VEC3"
    },
    {
      "bufferView": 2,
      "byteOffset": 12144,
      "componentType": 5126,
      "count": 124,
      "max": [
        1.0,
        1.0,
        1.0
      ],
      "min": [
        -1.0,
        -1.0,
        -1.0
      ],
      "type": "VEC3"
    },
    {
      "bufferView": 1,
      "byteOffset": 3552,
      "componentType": 5126,
      "count": 124,
      "max": [
        0.875,
        1.0
      ],
      "min": [
        0.125,
        0.0
      ],
      "type": "VEC2"
    },
    {
      "bufferView": 0,
      "byteOffset": 2736,
      "componentType": 5125,
      "count": 192,
      "type": "SCALAR"
    },
    {
      "bufferView": 2,
      "byteOffset": 13632,
      "componentType": 5126,
      "count": 24,
      "max": [
        0.5,
        0.5,
        0.5
      ],
      "min": [
        -0.5,
        -0.5,
        -0.5
      ],
      "type": "VEC3"
    },
    {
      "bufferView": 2,
      "byteOffset": 13920,
      "componentType": 5126,
      "count": 24,
      "max": [
        1.0,
        1.0,
        1.0
      ],
      "min": [
        -1.0,
        -1.0,
        -1.0
      ],
      "type": "VEC3"
    },
    {
      "bufferView": 1,
      "byteOffset": 4544,
      "componentType": 5126,
      "count": 24,
      "max": [
        0.875,
        1.0
      ],
      "min": [
        0.125,
        0.0
      ],
      "type": "VEC2"
    },
    {
      "bufferView": 0,
      "byteOffset": 3504,
      "componentType": 5125,
      "count": 36,
      "type": "SCALAR"
    },
    {
      "bufferView": 2,
      "byteOffset": 14208,
      "componentType": 5126,
      "count": 124,
      "max": [
        0.9301776885986328,
        9.12917709350586,
        0.27331358194351196
      ],
      "min": [
        -3.8191967010498047,
        0.35042253136634827,
        0.11734496057033539
      ],
      "type": "VEC3"
    },
    {
      "bufferView": 2,
      "byteOffset": 15696,
      "componentType": 5126,
      "count": 124,
      "max": [
        1.0,
        1.0,
        1.0
      ],
      "min": [
        -1.0,
        -1.0,
        -1.0
      ],
      "type": "VEC3"
    },
    {
      "bufferView": 1,
      "byteOffset": 4736,
      "componentType": 5126,
      "count": 124,
      "max": [
        0.875,
        1.0
      ],
      "min": [
        0.0,
        0.0
      ],
      "type": "VEC2"
    },
    {
      "bufferView": 0,
      "byteOffset": 3648,
      "componentType": 5125,
      "count": 192,
      "type": "SCALAR"
    },
    {
      "bufferView": 2,
      "byteOffset": 17184,
      "componentType": 5126,
      "count": 24,
      "max": [
        0.5,
        0.5,
        0.5
      ],
      "min": [
        -0.5,
        -0.5,
        -0.5
      ],
      "type": "VEC3"
    },
    {
      "bufferView": 2,
      "byteOffset": 17472,
      "componentType": 5126,
      "count": 24,
      "max": [
        1.0,
        1.0,
        1.0
      ],
      "min": [
        -1.0,
        -1.0,
        -1.0
      ],
      "type": "VEC3"
    },
    {
      "bufferView": 1,
      "byteOffset": 5728,
      "componentType": 5126,
      "count": 24,
      "max": [
        0.875,
        1.0
      ],
      "min": [
        0.125,
        0.0
      ],
      "type": "VEC2"
    },
    {
      "bufferView": 0,
      "byteOffset": 4416,
      "componentType": 5125,
      "count": 36,
      "type": "SCALAR"
    },
    {
      "bufferView": 2,
      "byteOffset": 17760,
      "componentType": 5126,
      "count": 124,
      "max": [
        0.9301776885986328,
        9.12917709350586,
        0.27331358194351196
      ],
      "min": [
        -3.8191957473754883,
        0.35042253136634827,
        0.11734496057033539
      ],
      "type": "VEC3"
    },
    {
      "bufferView": 2,
      "byteOffset": 19248,
      "componentType": 5126,
      "count": 124,
      "max": [
        1.0,
        1.0,
        1.0
      ],
      "min": [
        -1.0,
        -1.0,
        -1.0
      ],
      "type": "VEC3"
    },
    {
      "bufferView": 1,
      "byteOffset": 5920,
      "componentType": 5126,
      "count": 124,
      "max": [
        0.9999995231628418,
        1.0
      ],
      "min": [
        -4.76837158203125e-07,
        -5.960464477539063e-08
      ],
      "type": "VEC2"
    },
    {
      "bufferView": 0,
      "byteOffset": 4560,
      "componentType": 5125,
      "count": 192,
      "type": "SCALAR"
    },
    {
      "bufferView": 2,
      "byteOffset": 20736,
      "componentType": 5126,
      "count": 24,
      "max": [
        0.5,
        0.5,
        0.5
      ],
      "min": [
        -0.5,
        -0.5,
        -0.5
      ],
      "type": "VEC3"
    },
    {
      "bufferView": 2,
      "byteOffset": 21024,
      "componentType": 5126,
      "count": 24,
      "max": [
        1.0,
        1.0,
        1.0
      ],
      "min": [
        -1.0,
        -1.0,
        -1.0
      ],
      "type": "VEC3"
    },
    {
      "bufferView": 1,
      "byteOffset": 6912,
      "componentType": 5126,
      "count": 24,
      "max": [
        0.875,
        1.0
      ],
      "min": [
        0.125,
        0.0
      ],
      "type": "VEC2"
    },
    {
      "bufferView": 0,
      "byteOffset": 5328,
      "componentType": 5125,
      "count": 36,
      "type": "SCALAR"
    },
    {
      "bufferView": 2,
      "byteOffset": 21312,
      "componentType": 5126,
      "count": 48,
      "max": [
        10.37561321258545,
        10.22205924987793,
        0.700294017791748
      ],
      "min": [
        -17.904502868652344,
        0.13651996850967407,
        -0.35314857959747314
      ],
      "type": "VEC3"
    },
    {
      "bufferView": 2,
      "byteOffset": 21888,
      "componentType": 5126,
      "count": 48,
      "max": [
        1.0,
        1.0,
        1.0
      ],
      "min": [
        -1.0,
        -1.0,
        -1.0
      ],
      "type": "VEC3"
    },
    {
      "bufferView": 1,
      "byteOffset": 7104,
      "componentType": 5126,
      "count": 48,
      "max": [
        1.0000001192092896,
        1.0
      ],
      "min": [
        5.960464477539063e-08,
        -2.9802322387695313e-08
      ],
      "type": "VEC2"
    },
    {
      "bufferView": 0,
      "byteOffset": 5472,
      "componentType": 5125,
      "count": 72,
      "type": "SCALAR"
    }
  ],
  "asset": {
    "extras": {
      "author": "Maxwell autodoors (https://sketchfab.com/maihupronoob)",
      "license": "CC-BY-4.0 (http://creativecommons.org/licenses/by/4.0/)",
      "source": "https://sketchfab.com/3d-models/automatic-teloscopic-doors-f7f9d35fec024cd69abb2efeff794c44",
      "title": "Automatic Teloscopic Doors"
    },
    "generator": "Sketchfab-12.67.0",
    "version": "2.0"
  },
  "bufferViews": [
    {
      "buffer": 0,
      "byteLength": 5760,
      "name": "floatBufferViews",
      "target": 34963
    },
    {
      "buffer": 0,
      "byteLength": 7488,
      "byteOffset": 5760,
      "byteStride": 8,
      "name": "floatBufferViews",
      "target": 34962
    },
    {
      "buffer": 0,
      "byteLength": 22464,
      "byteOffset": 13248,
      "byteStride": 12,
      "name": "floatBufferViews",
      "target": 34962
    }
  ],
  "buffers": [
    {
      "byteLength": 35712,
      "uri": "scene.bin"
    }
  ],
  "images": [
    {
      "uri": "textures/blinn1_baseColor.jpeg"
    }
  ],
  "materials": [
    {
      "doubleSided": true,
      "name": "blinn1",
      "pbrMetallicRoughness": {
        "baseColorTexture": {
          "index": 0
        },
        "metallicFactor": 0.0,
        "roughnessFactor": 0.9207483816249483
      }
    },
    {
      "alphaMode": "BLEND",
      "doubleSided": true,
      "name": "lambert2",
      "pbrMetallicRoughness": {
        "baseColorFactor": [
          0.344156,
          0.344156,
          0.344156,
          0.19627558992880118
        ],
        "metallicFactor": 0.0,
        "roughnessFactor": 0.6
      }
    }
  ],
  "meshes": [
    {
      "name": "pCube6_blinn1_0",
      "primitives": [
        {
          "attributes": {
            "NORMAL": 1,
            "POSITION": 0,
            "TEXCOORD_0": 2
          },
          "indices": 3,
          "material": 0,
          "mode": 4
        }
      ]
    },
    {
      "name": "pCube5_lambert2_0",
      "primitives": [
        {
          "attributes": {
            "NORMAL": 5,
            "POSITION": 4,
            "TEXCOORD_0": 6
          },
          "indices": 7,
          "material": 1,
          "mode": 4
        }
      ]
    },
    {
      "name": "pCube6_blinn1_0",
      "primitives": [
        {
          "attributes": {
            "NORMAL": 9,
            "POSITION": 8,
            "TEXCOORD_0": 10
          },
          "indices": 11,
          "material": 0,
          "mode": 4
        }
      ]
    },
    {
      "name": "pCube5_lambert2_0",
      "primitives": [
        {
          "attributes": {
            "NORMAL": 13,
            "POSITION": 12,
            "TEXCOORD_0": 14
          },
          "indices": 15,
          "material": 1,
          "mode": 4
        }
      ]
    },
    {
      "name": "pCube6_blinn1_0",
      "primitives": [
        {
          "attributes": {
            "NORMAL": 17,
            "POSITION": 16,
            "TEXCOORD_0": 18
          },
          "indices": 19,
          "material": 0,
          "mode": 4
        }
      ]
    },
    {
      "name": "pCube5_lambert2_0",
      "primitives": [
        {
          "attributes": {
            "NORMAL": 21,
            "POSITION": 20,
            "TEXCOORD_0": 22
          },
          "indices": 23,
          "material": 1,
          "mode": 4
        }
      ]
    },
    {
      "name": "pCube6_blinn1_0",
      "primitives": [
        {
          "attributes": {
            "NORMAL": 25,
            "POSITION": 24,
            "TEXCOORD_0": 26
          },
          "indices": 27,
          "material": 0,
          "mode": 4
        }
      ]
    },
    {
      "name": "pCube5_lambert2_0",
      "primitives": [
        {
          "attributes": {
            "NORMAL": 29,
            "POSITION": 28,
            "TEXCOORD_0": 30
          },
          "indices": 31,
          "material": 1,
          "mode": 4
        }
      ]
    },
    {
      "name": "pCube6_blinn1_0",
      "primitives": [
        {
          "attributes": {
            "NORMAL": 33,
            "POSITION": 32,
            "TEXCOORD_0": 34
          },
          "indices": 35,
          "material": 0,
          "mode": 4
        }
      ]
    },
    {
      "name": "pCube5_lambert2_0",
      "primitives": [
        {
          "attributes": {
            "NORMAL": 37,
            "POSITION": 36,
            "TEXCOORD_0": 38
          },
          "indices": 39,
          "material": 1,
          "mode": 4
        }
      ]
    },
    {
      "name": "pCube6_blinn1_0",
      "primitives": [
        {
          "attributes": {
            "NORMAL": 41,
            "POSITION": 40,
            "TEXCOORD_0": 42
          },
          "indices": 43,
          "material": 0,
          "mode": 4
        }
      ]
    },
    {
      "name": "pCube5_lambert2_0",
      "primitives": [
        {
          "attributes": {
            "NORMAL": 45,
            "POSITION": 44,
            "TEXCOORD_0": 46
          },
          "indices": 47,
          "material": 1,
          "mode": 4
        }
      ]
    },
    {
      "name": "pCube9_blinn1_0",
      "primitives": [
        {
          "attributes": {
            "NORMAL": 49,
            "POSITION": 48,
            "TEXCOORD_0": 50
          },
          "indices": 51,
          "material": 0,
          "mode": 4
        }
      ]
    }
  ],
  "nodes": [
    {
      "children": [
        1
      ],
      "matrix": [
        1.0,
        0.0,
        0.0,
        0.0,
        0.0,
        2.220446049250313e-16,
        -1.0,
        0.0,
        0.0,
        1.0,
        2.220446049250313e-16,
        0.0,
        0.0,
        0.0,
        0.0,
        1.0
      ],
      "name": "Sketchfab_model"
    },
    {
      "children": [
        2
      ],
      "matrix": [
        1.0,
        0.0,
        0.0,
        0.0,
        0.0,
        0.0,
        1.0,
        0.0,
        0.0,
        -1.0,
        0.0,
        0.0,
        0.0,
        0.0,
        0.0,
        1.0
      ],
      "name": "3156a7d4a19c4f80aa591660d2dd3004.fbx"
    },
    {
      "children": [
        3,
        8,
        13,
        18,
        23,
        28,
        33
      ],
      "name": "RootNode"
    },
    {
      "children": [
        4,
        6
      ],
      "name": "Door"
    },
    {
      "children": [
        5
      ],
      "name": "pCube6"
    },
    {
      "mesh": 0,
      "name": "pCube6_blinn1_0"
    },
    {
      "children": [
        7
      ],
      "matrix": [
        4.440694332122803,
        0.0,
        0.0,
        0.0,
        0.0,
        8.561783790588379,
        0.0,
        0.0,
        0.0,
        0.0,
        0.08402916043996811,
        0.0,
        -1.4289321899414063,
        4.713181495666504,
        0.20466317236423492,
        1.0
      ],
      "name": "pCube5"
    },
    {
      "mesh": 1,
      "name": "pCube5_lambert2_0"
    },
    {
      "children": [
        9,
        11
      ],
      "matrix": [
        1.0,
        0.0,
        0.0,
        0.0,
        0.0,
        1.0,
        0.0,
        0.0,
        0.0,
        0.0,
        1.0,
        0.0,
        4.682505130767822,
        0.0,
        0.0,
        1.0
      ],
      "name": "Door1"
    },
    {
      "children": [
        10
      ],
      "name": "pCube6"
    },
    {
      "mesh": 2,
      "name": "pCube6_blinn1_0"
    },
    {
      "children": [
        12
      ],
      "matrix": [
        4.440694332122803,
        0.0,
        0.0,
        0.0,
        0.0,
        8.561783790588379,
        0.0,
        0.0,
        0.0,
        0.0,
        0.08402916043996811,
        0.0,
        -1.4289321899414063,
        4.713181495666504,
        0.20466317236423492,
        1.0
      ],
      "name": "pCube5"
    },
    {
      "mesh": 3,
      "name": "pCube5_lambert2_0"
    },
    {
      "children": [
        14,
        16
      ],
      "matrix": [
        1.0,
        0.0,
        0.0,
        0.0,
        0.0,
        1.0,
        0.0,
        0.0,
        0.0,
        0.0,
        1.0,
        0.0,
        9.368727684020996,
        0.0,
        0.0,
        1.0
      ],
      "name": "Door2"
    },
    {
      "children": [
        15
      ],
      "name": "pCube6"
    },
    {
      "mesh": 4,
      "name": "pCube6_blinn1_0"
    },
    {
      "children": [
        17
      ],
      "matrix": [
        4.440694332122803,
        0.0,
        0.0,
        0.0,
        0.0,
        8.561783790588379,
        0.0,
        0.0,
        0.0,
        0.0,
        0.08402916043996811,
        0.0,
        -1.4289321899414063,
        4.713181495666504,
        0.20466317236423492,
        1.0
      ],
      "name": "pCube5"
    },
    {
      "mesh": 5,
      "name": "pCube5_lambert2_0"
    },
    {
      "children": [
        19,
        21
      ],
      "matrix": [
        1.0,
        0.0,
        0.0,
        0.0,
        0.0,
        1.0,
        0.0,
        0.0,
        0.0,
        0.0,
        1.0,
        0.0,
        -4.698441028594971,
        0.0,
        0.0,
        1.0
      ],
      "name": "Door4"
    },
    {
      "children": [
        20
      ],
      "name": "pCube6"
    },
    {
      "mesh": 6,
      "name": "pCube6_blinn1_0"
    },
    {
      "children": [
        22
      ],
      "matrix": [
        4.440694332122803,
        0.0,
        0.0,
        0.0,
        0.0,
        8.561783790588379,
        0.0,
        0.0,
        0.0,
        0.0,
        0.08402916043996811,
        0.0,
        -1.4289321899414063,
        4.713181495666504,
        0.20466317236423492,
        1.0
      ],
      "name": "pCube5"
    },
    {
      "mesh": 7,
      "name": "pCube5_lambert2_0"
    },
    {
      "children": [
        24,
        26
      ],
      "matrix": [
        1.0,
        0.0,
        0.0,
        0.0,
        0.0,
        1.0,
        0.0,
        0.0,
        0.0,
        0.0,
        1.0,
        0.0,
        -9.376084327697754,
        0.0,
        0.0,
        1.0
      ],
      "name": "Door5"
    },
    {
      "children": [
        25
      ],
      "name": "pCube6"
    },
    {
      "mesh": 8,
      "name": "pCube6_blinn1_0"
    },
    {
      "children": [
        27
      ],
      "matrix": [
        4.440694332122803,
        0.0,
        0.0,
        0.0,
        0.0,
        8.561783790588379,
        0.0,
        0.0,
        0.0,
        0.0,
        0.08402916043996811,
        0.0,
        -1.4289321899414063,
        4.713181495666504,
        0.20466317236423492,
        1.0
      ],
      "name": "pCube5"
    },
    {
      "mesh": 9,
      "name": "pCube5_lambert2_0"
    },
    {
      "children": [
        29,
        31
      ],
      "matrix": [
        1.0,
        0.0,
        0.0,
        0.0,
        0.0,
        1.0,
        0.0,
        0.0,
        0.0,
        0.0,
        1.0,
        0.0,
        -14.06230640411377,
        0.0,
        0.0,
        1.0
      ],
      "name": "Door6"
    },
    {
      "children": [
        30
      ],
      "name": "pCube6"
    },
    {
      "mesh": 10,
      "name": "pCube6_blinn1_0"
    },
    {
      "children": [
        32
      ],
      "matrix": [
        4.440694332122803,
        0.0,
        0.0,
        0.0,
        0.0,
        8.561783790588379,
        0.0,
        0.0,
        0.0,
        0.0,
        0.08402916043996811,
        0.0,
        -1.4289321899414063,
        4.713181495666504,
        0.20466317236423492,
        1.0
      ],
      "name": "pCube5"
    },
    {
      "mesh": 11,
      "name": "pCube5_lambert2_0"
    },
    {
      "children": [
        34
      ],
      "matrix": [
        1.0,
        0.0,
        0.0,
        0.0,
        0.0,
        1.0,
        0.0,
        0.0,
        0.0,
        0.0,
        1.0,
        0.0,
        0.0,
        -0.06249397248029709,
        0.0,
        1.0
      ],
      "name": "pCube9"
    },
    {
      "mesh": 12,
      "name": "pCube9_blinn1_0"
    }
  ],
  "samplers": [
    {
      "magFilter": 9729,
      "minFilter": 9987,
      "wrapS": 10497,
      "wrapT": 10497
    }
  ],
  "scene": 0,
  "scenes": [
    {
      "name": "Sketchfab_Scene",
      "nodes": [
        0
      ]
    }
  ],
  "textures": [
    {
      "sampler": 0,
      "source": 0
    }
  ]
}
